<svg xmlns="http://www.w3.org/2000/svg" id="e9a400c3-14c4-48e9-ac4d-1e6d0c39fdb5" data-name="Layer 1" width="893.61704" height="736.75" viewBox="0 0 893.61704 736.75"><title>investing</title><path d="M321.94148,651.875s332.5-277.5,524,0" transform="translate(-153.44148 -81.375)" fill="#f2f2f2"/><rect x="159" y="413" width="60" height="158" rx="11.85052" fill="#225c80"/><rect x="273" y="318" width="60" height="253" rx="11.85052" fill="#225c80"/><rect x="387" y="252" width="60" height="319" rx="11.85052" fill="#225c80"/><rect x="501" y="189" width="60" height="382" rx="11.85052" fill="#225c80"/><rect x="615" y="79" width="60" height="492" rx="11.85052" fill="#225c80"/><rect x="167" y="405" width="60" height="158" rx="11.85052" fill="none" stroke="#3f3d56" stroke-miterlimit="10"/><rect x="281" y="310" width="60" height="253" rx="11.85052" fill="none" stroke="#3f3d56" stroke-miterlimit="10"/><rect x="395" y="244" width="60" height="319" rx="11.85052" fill="none" stroke="#3f3d56" stroke-miterlimit="10"/><rect x="509" y="181" width="60" height="382" rx="11.85052" fill="none" stroke="#3f3d56" stroke-miterlimit="10"/><rect x="623" y="71" width="60" height="492" rx="11.85052" fill="none" stroke="#3f3d56" stroke-miterlimit="10"/><line x1="835" y1="571.5" y2="571.5" fill="none" stroke="#3f3d56" stroke-miterlimit="10"/><polyline points="196.5 344.5 310.5 249.5 425.5 184.5 539.5 121.5 653.5 11.5" fill="none" stroke="#3f3d56" stroke-miterlimit="10"/><circle cx="193.5" cy="349.5" r="11" fill="#f2f2f2"/><circle cx="307.5" cy="254.5" r="11" fill="#f2f2f2"/><circle cx="422.5" cy="189.5" r="11" fill="#f2f2f2"/><circle cx="536.5" cy="126.5" r="11" fill="#f2f2f2"/><circle cx="650.5" cy="16.5" r="11" fill="#f2f2f2"/><circle cx="196.5" cy="344.5" r="11" fill="none" stroke="#3f3d56" stroke-miterlimit="10"/><circle cx="310.5" cy="249.5" r="11" fill="none" stroke="#3f3d56" stroke-miterlimit="10"/><circle cx="425.5" cy="184.5" r="11" fill="none" stroke="#3f3d56" stroke-miterlimit="10"/><circle cx="539.5" cy="121.5" r="11" fill="none" stroke="#3f3d56" stroke-miterlimit="10"/><circle cx="653.5" cy="11.5" r="11" fill="none" stroke="#3f3d56" stroke-miterlimit="10"/></svg>
