<svg xmlns="http://www.w3.org/2000/svg" xmlns:xlink="http://www.w3.org/1999/xlink" id="fb638577-3af1-4e62-8e8d-f046cc0653af" data-name="Layer 1" width="1150.44" height="866.47" viewBox="0 0 1150.44 866.47"><defs><linearGradient id="fe8c9d3d-ae8a-494a-b31b-bd29b33b8840" x1="296.46" y1="871.67" x2="296.46" y2="306.73" gradientTransform="translate(636.4)" gradientUnits="userSpaceOnUse"><stop offset="0" stop-color="gray" stop-opacity="0.25"/><stop offset="0.54" stop-color="gray" stop-opacity="0.12"/><stop offset="1" stop-color="gray" stop-opacity="0.1"/></linearGradient></defs><title>site stats</title><path d="M707.54,842.05v7.82H476.28v-6.35a76,76,0,0,0,5.23-140.37H706a76.09,76.09,0,0,0-42,50.39A76,76,0,0,0,693.36,834,76.07,76.07,0,0,0,707.54,842.05Z" transform="translate(-30.56 -15.24)" fill="#c8cad7"/><path d="M706,703.15a76.09,76.09,0,0,0-42,50.39H523.53a76.09,76.09,0,0,0-42-50.39Z" transform="translate(-30.56 -15.24)" opacity="0.1"/><path d="M211.48,663.31v43.9c0,24.24,17.74,43.89,39.63,43.89H931.49c21.89,0,39.63-19.65,39.63-43.89v-43.9Z" transform="translate(-30.56 -15.24)" fill="#c8cad7"/><path d="M707.54,842.05v7.82H476.28v-6.35a76.11,76.11,0,0,0,17.84-9.5H693.36A76.07,76.07,0,0,0,707.54,842.05Z" transform="translate(-30.56 -15.24)" opacity="0.1"/><rect x="369.3" y="821.22" width="384.09" height="23.17" rx="9.5" ry="9.5" fill="#c8cad7"/><path d="M971.12,182.28a39.63,39.63,0,0,0-39.63-39.63H251.11a39.63,39.63,0,0,0-39.63,39.63V671.85H971.12Z" transform="translate(-30.56 -15.24)" fill="#474157"/><path d="M950.39,200V620.63a19.5,19.5,0,0,1-19.51,19.51H251.71a19.5,19.5,0,0,1-19.51-19.51V200a19.51,19.51,0,0,1,19.51-19.51H930.88A19.51,19.51,0,0,1,950.39,200Z" transform="translate(-30.56 -15.24)" fill="#f4f4f7"/><circle cx="560.74" cy="146.32" r="9.15" fill="#fff"/><circle cx="560.74" cy="693.8" r="22.56" fill="#fff"/><path d="M950.39,200H232.21a19.5,19.5,0,0,1,19.5-19.51H930.88A19.5,19.5,0,0,1,950.39,200Z" transform="translate(-30.56 -15.24)" fill="#fff"/><circle cx="221.15" cy="174.97" r="4.88" fill="#ededf4"/><circle cx="235.78" cy="174.97" r="4.88" fill="#ededf4"/><circle cx="250.42" cy="174.97" r="4.88" fill="#ededf4"/></svg>
