<svg xmlns="http://www.w3.org/2000/svg" id="b582dbfc-ed60-4217-aa06-1e10ec960023" data-name="Layer 1" width="842" height="678.37637" viewBox="0 0 842 678.37637"><title>business_shop</title><rect x="146.16914" y="282.832" width="516.46279" height="362.79825" fill="#f2f2f2"/><rect x="189.64496" y="421.25614" width="129.67789" height="226.37411" fill="#3f3d56"/><rect x="213.63162" y="434.83658" width="34.93166" height="32.56341" fill="#f2f2f2"/><rect x="260.40453" y="434.83658" width="34.93166" height="32.56341" fill="#f2f2f2"/><rect x="213.63162" y="479.24124" width="34.93166" height="33.74754" fill="#f2f2f2"/><rect x="260.40453" y="479.24124" width="34.93166" height="33.74754" fill="#f2f2f2"/><circle cx="302.83202" cy="549.6836" r="8.24541" fill="#257e96"/><rect x="362.79867" y="399.76697" width="256.35744" height="215.13036" fill="#3f3d56"/><polygon points="716.602 351.134 92.199 351.134 133.831 264.092 143.148 244.603 155.337 219.117 164.654 199.628 175.455 177.051 667.407 177.051 673.786 199.628 679.295 219.117 686.499 244.603 692.008 264.092 716.602 351.134" fill="#3f3d56"/><rect x="371.79367" y="488.96737" width="8.995" height="55.46915" fill="#257e96"/><rect x="371.79367" y="497.21278" width="8.995" height="6.74625" fill="#f2f2f2"/><rect x="371.79367" y="529.44486" width="8.995" height="6.74625" fill="#f2f2f2"/><rect x="385.28617" y="488.96737" width="21.73791" height="55.46915" fill="#257e96"/><rect x="385.28617" y="497.21278" width="21.73791" height="6.74625" fill="#f2f2f2"/><rect x="385.28617" y="529.44486" width="21.73791" height="6.74625" fill="#f2f2f2"/><rect x="412.27116" y="488.96737" width="8.995" height="55.46915" fill="#257e96"/><rect x="412.27116" y="497.21278" width="8.995" height="6.74625" fill="#f2f2f2"/><rect x="412.27116" y="529.44486" width="8.995" height="6.74625" fill="#f2f2f2"/><rect x="425.76366" y="488.96737" width="8.995" height="55.46915" fill="#257e96"/><rect x="425.76366" y="497.21278" width="8.995" height="6.74625" fill="#f2f2f2"/><rect x="425.76366" y="529.44486" width="8.995" height="6.74625" fill="#f2f2f2"/><rect x="623.50323" y="599.77918" width="8.995" height="55.46915" transform="translate(-359.97652 151.03236) rotate(-20.65411)" fill="#257e96"/><rect x="617.8187" y="609.06043" width="8.995" height="6.74625" transform="translate(-355.02271 148.05803) rotate(-20.65411)" fill="#f2f2f2"/><rect x="629.18777" y="639.22084" width="8.995" height="6.74625" transform="translate(-364.93033 154.0067) rotate(-20.65411)" fill="#f2f2f2"/><rect x="589.17278" y="488.96737" width="21.73791" height="55.46915" fill="#257e96"/><rect x="589.17278" y="497.21278" width="21.73791" height="6.74625" fill="#f2f2f2"/><rect x="589.17278" y="529.44486" width="21.73791" height="6.74625" fill="#f2f2f2"/><rect x="574.9307" y="488.96737" width="8.995" height="55.46915" fill="#257e96"/><rect x="574.9307" y="497.21278" width="8.995" height="6.74625" fill="#f2f2f2"/><rect x="574.9307" y="529.44486" width="8.995" height="6.74625" fill="#f2f2f2"/><rect x="561.43821" y="488.96737" width="8.995" height="55.46915" fill="#257e96"/><rect x="561.43821" y="497.21278" width="8.995" height="6.74625" fill="#f2f2f2"/><rect x="561.43821" y="529.44486" width="8.995" height="6.74625" fill="#f2f2f2"/><rect x="698.46155" y="623.01626" width="55.46915" height="8.995" transform="translate(-296.13324 974.88303) rotate(-69.34589)" fill="#257e96"/><rect x="728.50754" y="607.93605" width="6.74625" height="8.995" transform="translate(-278.34283 970.44117) rotate(-69.34589)" fill="#f2f2f2"/><rect x="717.13846" y="638.09647" width="6.74625" height="8.995" transform="translate(-313.92365 979.32489) rotate(-69.34589)" fill="#f2f2f2"/><rect x="362.79867" y="544.43652" width="256.35744" height="5.24708" fill="#f2f2f2"/><rect x="474.48656" y="488.96737" width="47.22374" height="55.46915" fill="#257e96"/><rect x="486.1051" y="500.9607" width="23.98666" height="10.49416" fill="#f2f2f2"/><rect x="488.72864" y="399.76697" width="4.4975" height="47.97332" fill="#f2f2f2"/><circle cx="490.97739" cy="447.7403" r="7.49583" fill="#f2f2f2"/><polygon points="679.295 219.117 155.337 219.117 164.654 199.628 673.786 199.628 679.295 219.117" fill="#257e96"/><polygon points="692.008 264.092 133.831 264.092 143.148 244.603 686.499 244.603 692.008 264.092" fill="#257e96"/><circle cx="100" cy="386.37637" r="100" fill="#257e96"/><circle cx="100" cy="386.37637" r="86" opacity="0.1"/><path d="M274.87909,547.93609V535.419c-6.32734-.12344-12.87306-2.355-16.69109-5.45314l2.618-8.30317a26.68122,26.68122,0,0,0,15.70942,5.3285c7.74578,0,12.98225-5.081,12.98225-12.14493,0-6.81643-4.2548-11.02973-12.32763-14.74806-11.12757-4.957-18.00034-10.65821-18.00034-21.43985,0-10.28668,6.43653-18.09426,16.47324-19.95312V446.18818h6.76358v12.02149A26.54267,26.54267,0,0,1,296.5888,462.547l-2.7277,8.17972a24.10671,24.10671,0,0,0-13.74554-4.21391c-8.39987,0-11.56381,5.70063-11.56381,10.65821,0,6.44429,4.03642,9.66644,13.52769,14.12844,11.23623,5.20506,16.90948,11.64935,16.90948,22.67909,0,9.79049-6.0003,18.962-17.23706,21.06771v12.88981Z" transform="translate(-179 -110.81181)" fill="#f2f2f2"/></svg>
